<svg xmlns="http://www.w3.org/2000/svg" width="250" height="250" fill="none" viewBox="0 0 250 250">
<!-- SVG created with Arrow, by QuiverAI (https://quiver.ai) -->
  <path d="m242.3 66.07c-7.28-3.83-12.48-9.96-14.27-18.59s-3.48-14.2-16.05-16.59c-9.76-1.94-14.73-5.02-21.5-16.65-1.77-3.13-5.4-2.21-7.11 0.47-10.32 13.13-13.07 30.28-11.42 45.45 0.77 7.46 3.15 15.12 5.08 22.03 2.1 8.09 0.5 15.68-5.2 23.47-15.66 22.85-49.68 50.12-71.78 62.67l-0.1-0.27c18.18-15.98 58.2-51.1 69.34-70.34 4.09-6.99 3.36-12.81 0.97-19.57-1.5-4.45-2.74-8.99-3.36-15.02l-15.3-7.4c-7.87-3.65-18.64-2.92-24.9 2.75-13.53 12.4-47.55 45.5-66.48 63.46-8.22 7.8-10.12 16.92-6.28 26.54l9.25 21.48c5.99 13.96 3.97 26.76-3.76 37.85 2.8-10.05 3.38-20.15 0.83-25.53-8.99-0.66-16.5 0.9-25.5 4.27 6.85-7.24 14.09-8.84 24.69-10.29-0.8-2.45-1.69-5.33-3.53-7.53-17.79-1.56-33.79 0.43-47.6 9.18-4.17 2.51-3.31 6.08 0.5 7.72 7.51 3.65 11.71 9.53 12.93 17.82 1.18 7.89 6.1 13.56 15.05 15.16 10.15 1.75 15.52 4.22 22.69 16.71 1.94 3.39 5.82 2.3 7.4-0.44 11.86-16.89 12.91-36.41 9.28-53.12-1.6-7.65-4.88-14.05-6.77-23.67 8.12 8.22 13.31 17.2 14.05 27.98l16.36 7.76c9.07 3.36 18.32 1.53 24.94-5.46l65.81-61.94c7.73-7.35 8.3-17.27 4.76-25.3l-9.07-21.11c-5.99-13.81-4.39-27.91 3.72-37.83-2.38 9.4-3.25 16.29-1.12 25.33 8.95 1.45 15.9 0 25.01-3.83-6.26 6.62-13.5 8.74-22.91 9.87 1.1 3.16 2.28 5.55 3.68 8.33 14.79 0.89 30.49-1.23 45.2-9.66 4.02-2.12 5.85-4.06 2.47-6.16z" fill="url(#paint0_linear_210_19)"/>
  <defs>
    <linearGradient id="paint0_linear_210_19" x1="125" x2="125" y1="12.5" y2="237.5" gradientUnits="userSpaceOnUse">
      <stop stop-color="#5A5ED3" offset="0"/>
      <stop stop-color="#5A5ED3" offset="1"/>
    </linearGradient>
  </defs>
</svg>